<svg
  width='18'
  height='16'
  fill="none"
  xmlns="http://www.w3.org/2000/svg"
>
  <path
    d="M9.001 6.752c-2.79 0-6.72 4.314-6.72 7.04-.03 1.226.91 1.961 2.494 1.961 1.716 0 2.851-.883 4.226-.883 1.39 0 2.528.883 4.227.883 1.55 0 2.522-.734 2.522-1.96-.03-2.723-3.957-7.041-6.749-7.041zm-5.176-.443C3.461 5.09 2.331 4.3 1.307 4.546.283 4.792-.25 5.978.115 7.195c.364 1.22 1.494 2.011 2.518 1.765 1.024-.246 1.555-1.435 1.192-2.651zm2.979-.732c1.085-.285 1.63-1.726 1.213-3.283C7.599.738 6.382-.206 5.292.048c-1.085.286-1.63 1.727-1.213 3.284.418 1.524 1.635 2.534 2.725 2.245zm9.894-1.03c-1.024-.214-2.154.545-2.518 1.762-.365 1.218.167 2.404 1.19 2.65 1.025.215 2.15-.545 2.519-1.762.363-1.219-.2-2.404-1.19-2.65zm-5.5 1.03c1.06.286 2.308-.72 2.726-2.245.417-1.525-.128-2.998-1.214-3.284-1.058-.285-2.307.721-2.724 2.246-.419 1.525.126 2.998 1.213 3.283z"
    fill="currentColor"
  />
</svg>
