<svg
  width='283'
  height='46'
  fill="none"
  xmlns="http://www.w3.org/2000/svg"
>
  <path
    d="M24 20C16.56 20 6.084 31.503 6.084 38.769 6.002 42.04 8.51 44 12.731 44c4.575 0 7.603-2.353 11.269-2.353 3.703 0 6.74 2.353 11.269 2.353 4.134 0 6.725-1.958 6.725-5.227C41.916 31.514 31.444 20 24 20zm-13.8-1.181c-.972-3.246-3.984-5.355-6.714-4.699-2.73.656-4.152 3.818-3.18 7.061.973 3.253 3.985 5.363 6.715 4.706 2.73-.656 4.145-3.825 3.179-7.068zm7.94-1.95c2.895-.762 4.348-4.603 3.235-8.754-1.113-4.15-4.36-6.665-7.265-5.987-2.894.761-4.347 4.603-3.234 8.753 1.115 4.066 4.358 6.756 7.265 5.988zm26.382-2.747c-2.73-.572-5.742 1.453-6.715 4.699-.972 3.246.446 6.41 3.176 7.066 2.73.572 5.73-1.454 6.714-4.7.969-3.25-.531-6.409-3.175-7.065zm-14.663 2.747c2.822.762 6.152-1.922 7.265-5.988 1.113-4.066-.34-7.992-3.234-8.753-2.822-.762-6.152 1.921-7.265 5.987-1.116 4.066.337 7.994 3.234 8.754zM67.193 24.264H64.89V45h-4.8V.2h4.8v20.864l2.24-.896L78.777.2h5.504L72.57 19.528l-2.24 2.048 2.624 2.56L85.945 45h-6.08L67.193 24.264zM86.861 29c0-5.76.981-9.984 2.944-12.672 2.005-2.73 4.843-4.096 8.512-4.096 3.925 0 6.805 1.387 8.64 4.16 1.877 2.773 2.816 6.976 2.816 12.608 0 5.803-1.003 10.048-3.008 12.736-2.005 2.688-4.821 4.032-8.448 4.032-3.925 0-6.827-1.387-8.704-4.16-1.835-2.773-2.752-6.976-2.752-12.608zm4.8 0c0 1.877.107 3.584.32 5.12.256 1.536.64 2.859 1.152 3.968.555 1.11 1.259 1.984 2.112 2.624.853.597 1.877.896 3.072.896 2.219 0 3.883-.981 4.992-2.944 1.109-2.005 1.664-5.227 1.664-9.664 0-1.835-.128-3.52-.384-5.056-.213-1.579-.597-2.923-1.152-4.032-.512-1.11-1.195-1.963-2.048-2.56-.853-.64-1.877-.96-3.072-.96-2.176 0-3.84 1.003-4.992 3.008-1.11 2.005-1.664 5.205-1.664 9.6zM131.784 17.16h-7.872V45h-4.608V17.16h-7.872V13h20.352v4.16zM133.486 29c0-5.76.981-9.984 2.944-12.672 2.005-2.73 4.843-4.096 8.512-4.096 3.925 0 6.805 1.387 8.64 4.16 1.877 2.773 2.816 6.976 2.816 12.608 0 5.803-1.003 10.048-3.008 12.736-2.005 2.688-4.821 4.032-8.448 4.032-3.925 0-6.827-1.387-8.704-4.16-1.835-2.773-2.752-6.976-2.752-12.608zm4.8 0c0 1.877.107 3.584.32 5.12.256 1.536.64 2.859 1.152 3.968.555 1.11 1.259 1.984 2.112 2.624.853.597 1.877.896 3.072.896 2.219 0 3.883-.981 4.992-2.944 1.109-2.005 1.664-5.227 1.664-9.664 0-1.835-.128-3.52-.384-5.056-.213-1.579-.597-2.923-1.152-4.032-.512-1.11-1.195-1.963-2.048-2.56-.853-.64-1.877-.96-3.072-.96-2.176 0-3.84 1.003-4.992 3.008-1.109 2.005-1.664 5.205-1.664 9.6zM177.879 17.16h-10.752V45h-4.608V13h19.968v32h-4.608V17.16zM188.611 29c0-5.76.981-9.984 2.944-12.672 2.005-2.73 4.843-4.096 8.512-4.096 3.925 0 6.805 1.387 8.64 4.16 1.877 2.773 2.816 6.976 2.816 12.608 0 5.803-1.003 10.048-3.008 12.736-2.005 2.688-4.821 4.032-8.448 4.032-3.925 0-6.827-1.387-8.704-4.16-1.835-2.773-2.752-6.976-2.752-12.608zm4.8 0c0 1.877.107 3.584.32 5.12.256 1.536.64 2.859 1.152 3.968.555 1.11 1.259 1.984 2.112 2.624.853.597 1.877.896 3.072.896 2.219 0 3.883-.981 4.992-2.944 1.109-2.005 1.664-5.227 1.664-9.664 0-1.835-.128-3.52-.384-5.056-.213-1.579-.597-2.923-1.152-4.032-.512-1.11-1.195-1.963-2.048-2.56-.853-.64-1.877-.96-3.072-.96-2.176 0-3.84 1.003-4.992 3.008-1.109 2.005-1.664 5.205-1.664 9.6zM220.78 13v9.344c0 1.067.043 2.027.128 2.88.128.853.341 1.6.64 2.24a3.405 3.405 0 001.28 1.408c.555.299 1.28.448 2.176.448 1.493 0 2.709-.192 3.648-.576.939-.384 1.664-.81 2.176-1.28V13h4.608v32h-4.608V31.56c-.512.384-1.323.81-2.432 1.28-1.067.427-2.517.64-4.352.64-1.237 0-2.347-.15-3.328-.448a6.143 6.143 0 01-2.496-1.6c-.64-.725-1.152-1.707-1.536-2.944-.341-1.237-.512-2.795-.512-4.672V13h4.608zM259.659 17.16h-7.872V45h-4.608V17.16h-7.872V13h20.352v4.16zM263.199 14.92c1.237-.768 2.731-1.365 4.48-1.792a24.237 24.237 0 015.632-.64c1.792 0 3.221.277 4.288.832 1.109.512 1.963 1.237 2.56 2.176.64.896 1.045 1.941 1.216 3.136.213 1.152.32 2.368.32 3.648 0 2.56-.064 5.056-.192 7.488a198.385 198.385 0 00-.128 6.912c0 1.621.043 3.136.128 4.544.128 1.365.341 2.667.64 3.904h-3.52l-1.088-3.776h-.256c-.64 1.11-1.579 2.07-2.816 2.88-1.237.81-2.901 1.216-4.992 1.216-2.304 0-4.203-.79-5.696-2.368-1.451-1.621-2.176-3.84-2.176-6.656 0-1.835.299-3.37.896-4.608a8.147 8.147 0 012.624-3.008c1.152-.768 2.496-1.301 4.032-1.6 1.579-.341 3.328-.512 5.248-.512h1.28c.427 0 .875.021 1.344.064.128-1.323.192-2.496.192-3.52 0-2.432-.363-4.139-1.088-5.12-.725-.981-2.048-1.472-3.968-1.472-1.195 0-2.496.192-3.904.576-1.408.341-2.581.79-3.52 1.344l-1.536-3.648zm13.888 15.488a12.846 12.846 0 00-1.28-.064 12.846 12.846 0 00-1.28-.064c-1.024 0-2.027.085-3.008.256-.981.17-1.856.47-2.624.896a5.155 5.155 0 00-1.856 1.728c-.427.725-.64 1.643-.64 2.752 0 1.707.405 3.03 1.216 3.968.853.939 1.941 1.408 3.264 1.408 1.792 0 3.179-.427 4.16-1.28.981-.853 1.664-1.792 2.048-2.816v-6.784z"
    fill="currentColor"
  />
</svg>
